<?xml version="1.0" encoding="utf-8"?>
<!-- Generator: Adobe Illustrator 16.0.0, SVG Export Plug-In . SVG Version: 6.00 Build 0)  -->
<!DOCTYPE svg PUBLIC "-//W3C//DTD SVG 1.1//EN" "http://www.w3.org/Graphics/SVG/1.1/DTD/svg11.dtd">
<svg version="1.1" id="Calque_1" xmlns="http://www.w3.org/2000/svg" xmlns:xlink="http://www.w3.org/1999/xlink" x="0px" y="0px"
	 width="52.734px" height="52.739px" viewBox="0 0 52.734 52.739" enable-background="new 0 0 52.734 52.739" xml:space="preserve">
<path fill="#FFFFFF" d="M21.055,0.005L0.998,46.219C0.363,44.821,0,43.273,0,41.637v-30.53C0,4.976,4.971,0.005,11.102,0.005H21.055
	z M41.632,0.005h-9.117l0,0.001L32.503,0l-9.011,20.852L9.706,52.643c0.458,0.058,0.922,0.097,1.396,0.097h30.53
	c0.758,0,1.498-0.077,2.213-0.222L29.542,19.603l5.727-13.254l16.866,38.862c0.382-1.123,0.599-2.322,0.599-3.574v-30.53
	C52.734,4.976,47.764,0.005,41.632,0.005z"/>
</svg>
