<?xml version="1.0" encoding="utf-8"?>
<!-- Generator: Adobe Illustrator 22.0.1, SVG Export Plug-In . SVG Version: 6.00 Build 0)  -->
<svg version="1.1" id="Calque_1" xmlns="http://www.w3.org/2000/svg" xmlns:xlink="http://www.w3.org/1999/xlink" x="0px" y="0px"
	 viewBox="0 0 1080 1080" style="enable-background:new 0 0 1080 1080;" xml:space="preserve">
<style type="text/css">
	.st0{fill:#FFFFFF;}
	.st1{fill:none;stroke:#242424;stroke-width:2;stroke-miterlimit:10;}
</style>
<g>
	<path class="st0" d="M1079.9,327.4C1076.8,146.8,928.1,0,746.7,0h-89.2L539.9,271.3l-338.6,781.3c38.8,16.9,81.4,26.6,126.1,27.3
		c1.9,0,3.9,0.1,5.8,0.1h413.4c2,0,3.9,0,5.8-0.1c44.6-0.8,87.2-10.4,126-27.3L598.1,405.6l117.6-271.4l329.8,759.7
		c21.2-42.8,33.5-90.7,34.4-141.3c0-1.9,0.1-3.9,0.1-5.8V333.3C1080,331.3,1080,329.4,1079.9,327.4z"/>
	<path class="st0" d="M333.3,0C150,0,0,150,0,333.3v413.4c0,52.7,12.4,102.6,34.4,147L422.3,0H333.3z"/>
</g>
<path class="st1" d="M484.2,284"/>
</svg>
